<svg xmlns="http://www.w3.org/2000/svg" xmlns:xlink="http://www.w3.org/1999/xlink" width="1600" height="1200" viewBox="0 0 1600 1200">
  <g>
    <path fill="rgba(255,255,255,.8)" d="M493.055,21.478c63.4,2.565,116.731,69.833,150.921,109.854-17.076,12.793-38.06,24.284-38.06,24.284-42.487-44.358-62.583-71.174-118.452-85.609-11.049,25.713,38.614,84.727,99.665,143.283a382.794,382.794,0,0,1,52.611-36.849C787.775,90.435,943.212,60.875,1079.691,57.52c227.465-5.592,402.238,61.632,402.238,61.632,10.463,3.988,16.022,16.608,12.416,28.184s-15.011,17.727-25.474,13.737c0,0-434.188-164.007-810.518,54.638a341.4,341.4,0,0,0-39.623,27.012c79.645,71.969,164.423,134.339,158.214,120.689,0,0-28.886-63.121-92.13-124.263,15.535-8.813,24.07-13.384,39.762-20.941C795.85,298.9,818.849,355.542,861.052,400.184,1095.354,648.025,1605,1221.419,1605,1221.419S1002.841,641.1,798.857,436.188C806.068,446.85,686.44,368.656,583.552,275c-45.09,46.816-76.974,105-96.991,168.681C577.351,488.345,655.953,553.5,716.1,625.425c74.872,89.527,122.79,188.757,131.44,275.116,4.325,43.179-1.5,83.886-20.871,116.655s-52,55.809-95.047,65.205c-79.116,17.27-150.46-20.554-202.525-86.608S441.726,835.7,426.936,733.32c-12.381-85.707-9.027-177.694,11.6-264.126-119.58-50.159-259.224-60.931-406.2,2.574-10.309,4.456-21.931-1.177-25.958-12.584s1.064-24.265,11.373-28.722c155.706-67.278,304.377-56.214,431.825-3.574,21.521-67.651,55.207-130.136,103.068-181.015C472.856,167.563,413.894,83.9,454.2,34.465,465.139,24.7,478.424,20.886,493.055,21.478ZM475.588,486.369c-17.783,78.078-20.452,161.365-9.1,239.957,13.808,95.589,47.343,182.6,92.824,240.3s100.375,86.281,164.534,72.275c35-7.64,56.242-23.9,69.28-45.955s18.179-51.647,14.585-87.53c-7.188-71.765-50.486-165.609-120.987-249.909C630.983,588.858,558.819,528.377,475.588,486.369Z" transform="translate(-5 -21.419)" fill-rule="evenodd"/>
  </g>
</svg>
