<?xml version="1.0" encoding="UTF-8"?>
<svg width="200px" height="200px" viewBox="0 0 200 200" version="1.1" 
	xmlns="http://www.w3.org/2000/svg" 
	xmlns:xlink="http://www.w3.org/1999/xlink">
	<path fill="rgb(224,181,255)" fill-opacity="0.4" d="M138.993556,0.00987320626 C131.068346,0.437309555 124.402056,11.6487215 120.128285,18.3188722 C122.26277,20.4510341 124.885841,22.3661924 124.885841,22.3661924 C130.196656,14.9731521 132.708741,10.5037992 139.692433,8.09810982 C141.073559,12.3835361 134.865665,22.2193002 127.234234,31.9785787 C125.20758,29.7297262 123.019568,27.6666496 120.657866,25.8371544 C102.153408,11.502613 82.7237713,6.5760027 65.663821,6.01681266 C37.2306469,5.08476586 15.3839215,16.2888102 15.3839215,16.2888102 C14.5284685,16.7082237 13.8917665,17.7734511 13.7167499,19.0780531 C13.5417334,20.3826551 13.8554018,21.7253731 14.5380747,22.593891 C15.2207474,23.4624089 16.1671098,23.7227417 17.0160757,23.2755594 C17.0160757,23.2755594 71.2898708,-4.0587069 118.331181,32.3820304 C120.087849,33.7428447 121.732193,35.2559909 123.284073,36.884034 C113.32842,48.8788202 102.731069,59.2738137 103.507227,56.9989567 C103.507227,56.9989567 107.117975,46.4788852 115.023462,36.288462 C113.081542,34.8196196 112.014689,34.0578791 110.053206,32.7982892 C101.144063,46.2474285 98.2691824,55.6871775 92.9937222,63.127574 C63.7060139,104.434283 0,200 0,200 C0,200 75.2700533,103.280688 100.768159,69.1281099 C99.8668322,70.9051764 114.820365,57.8728631 127.68134,42.2633835 C133.317604,50.0661314 137.303143,59.7634464 139.805294,70.3768862 C128.456561,77.8209976 118.631277,88.6803636 111.112371,100.667749 C101.753352,115.588866 95.7635714,132.127274 94.6823059,146.5203 C94.1416764,153.716786 94.8691765,160.501271 97.29115,165.962805 C99.7129502,171.424335 103.791492,175.264297 109.172017,176.830371 C119.061512,179.708767 127.979543,173.404666 134.48777,162.395785 C140.995995,151.386904 145.409763,135.714124 147.258507,118.650146 C148.806115,104.365666 148.386843,89.0345211 145.80867,74.6291371 C160.756179,66.269242 178.211745,64.473909 196.583424,75.0582031 C197.416995,75.538667 198.360993,75.3265652 199.05982,74.5017945 C199.758649,73.6770237 200.106139,72.3648864 199.971395,71.0596517 C199.836652,69.7544171 199.240145,68.6543815 198.406574,68.1739177 C178.943228,56.960968 160.35934,58.8049426 144.428284,67.5783457 C141.73816,56.3031996 137.52741,45.8890151 131.544683,37.4091602 C141.518468,24.3572755 148.888759,10.4136769 143.850952,2.17442016 C142.483115,0.546206442 140.822452,-0.0887871374 138.993556,0.00987320626 L138.993556,0.00987320626 Z M141.176997,77.4917169 C143.399949,90.5047178 143.73344,104.385848 142.314297,117.48462 C140.588277,133.416095 136.396454,147.918382 130.711243,157.535159 C125.026001,167.151887 118.16429,171.915289 110.144364,169.581059 C105.769751,168.307823 103.114087,165.597067 101.484396,161.921888 C99.8547373,158.246763 99.2119858,153.314004 99.6612457,147.333607 C100.559806,135.372803 105.972066,119.73205 114.784716,105.682072 C121.752551,94.5732488 130.772978,84.4929355 141.176997,77.4917169 L141.176997,77.4917169 Z" id="Shape" transform="translate(100.000000, 100.000000) rotate(-90.000000) translate(-100.000000, -100.000000) "></path>
</svg>